<svg id="ab3bb75b-6b96-4c24-b2db-45f1ec459c7e" data-name="b31d46d3-8967-4bdd-a769-db977df81c82" xmlns="http://www.w3.org/2000/svg" xmlns:xlink="http://www.w3.org/1999/xlink" viewBox="0 0 440.16 500.02"><defs><clipPath id="ebd49e99-73fc-47bd-913a-c1fc95c4acd7" transform="translate(0 0.02)"><path d="M220.55,7.84h-.93c-10.8.28-113.33,5.62-105.71,107.42,8,107.45,34.21,143.05,34.21,143.05s15.29,48.27,66.9,50.63l4.6.06h.93l4.6-.06c51.61-2.36,66.9-50.63,66.9-50.63s26.15-35.6,34.2-143C333.88,13.46,231.34,8.12,220.55,7.84Z" fill="none"/></clipPath></defs><path d="M101.93,195.56s-28.2,32.87-19.34,56.33-26.59,37-26.59,37S31.5,301.4,45,331.64s-18.42,39.79-18.42,39.79S8,390.05,15.34,417.68,61.74,438,61.74,438l95.19-77.68,10.12-110L134.63,206Z" transform="translate(0 0.02)" fill="#4c3422"/><path d="M334.12,192.57s28.21,32.87,19.34,56.33,26.59,37,26.59,37,24.51,12.52,10.95,42.75,18.43,39.8,18.43,39.8S428,387,420.72,414.68,374.32,435,374.32,435l-95.2-77.68L269,247.33,301.43,203Z" transform="translate(0 0.02)" fill="#4c3422"/><path d="M353.65,315.89c-2.7-16.22-42.68-20.48-34.19-51.55s-6.55-56.16-6.55-56.16l-92.28-5.76v-.17l-1.38.08-1.34-.08v.16l-95.46,5.77s-15,25.1-6.55,56.16-31.5,35.33-34.2,51.55S88.08,367,88.08,367l126.64,4.59v.1l1.38-.05,1.35.05v-.1L347.26,367S356.36,332.11,353.65,315.89Z" transform="translate(0 0.02)" fill="#321b0f"/><path d="M360.29,366.69l-59.1-26.9c-24.46-19.49-23-63-23-63L220,297.21,155.84,271s6.88,53.93-1.94,53.26l-84,54.14S8.15,421.86,0,500H440.16C432,421.86,360.29,366.69,360.29,366.69Z" transform="translate(0 0.02)" fill="#ffdebc"/><path d="M360.63,366.84l-74.79-48.5s10.32,40.83-30,53.62L185,371.3c-38-13.28-28-53-28-53l-69,46-4.78,2.89L82.07,500H362.7l-2-130.43Z" transform="translate(0 0.02)" fill="#e86546"/><path d="M224.88,442.48a24,24,0,0,0-38.47,28.71h0L196.1,464s-9-7.88,2.37-16.74,17.3,2.06,17.3,2.06Z" transform="translate(0 0.02)" fill="#f9a793"/><path d="M321.89,465.84a24,24,0,0,0-41.27,24.5l10.4-6.17s-8.15-8.79,4.11-16.4,17,3.88,17,3.88Z" transform="translate(0 0.02)" fill="#f9a793"/><circle cx="228.97" cy="479.93" r="6.99" fill="#f9a793"/><path d="M320.31,150.22s2.57-18.71,18.43-5.92,1,53.73-8.7,64.47-21,5.12-21,5.12Z" transform="translate(0 0.02)" fill="#ffdebc"/><path d="M119.67,150.22s-2.56-18.71-18.43-5.92-1,53.73,8.7,64.47,21,5.12,21,5.12Z" transform="translate(0 0.02)" fill="#ffdebc"/><path d="M120.4,272.11A31.58,31.58,0,1,1,152,240.54,31.58,31.58,0,0,1,120.4,272.11Zm0-60.1a28.53,28.53,0,1,0,28.52,28.54h0A28.56,28.56,0,0,0,120.4,212Z" transform="translate(0 0.02)" fill="#e2a037"/><path d="M309.06,272.11a31.58,31.58,0,1,1,31.58-31.58h0A31.61,31.61,0,0,1,309.06,272.11Zm0-60.1a28.53,28.53,0,1,0,28.53,28.53h0A28.57,28.57,0,0,0,309.06,212Z" transform="translate(0 0.02)" fill="#e2a037"/><path d="M155.84,271c6.2,44.22-1.82,55.54-1.82,55.54l129.49-14.23s-4.5-12.47-4.84-34.2L164.35,271Z" transform="translate(0 0.02)" fill="#fbc29a"/><path d="M220.27,7.84h-.93c-10.8.28-113.33,5.62-105.71,107.42,8.05,107.45,34.21,143.05,34.21,143.05s15.29,48.27,66.9,50.63l4.6.06h.93l4.6-.06c51.61-2.36,66.9-50.63,66.9-50.63s26.15-35.6,34.2-143C333.6,13.46,231.06,8.12,220.27,7.84Z" transform="translate(0 0.02)" fill="#ffdebc"/><g clip-path="url(#ebd49e99-73fc-47bd-913a-c1fc95c4acd7)"><path d="M133.14,151.84s9.51-75.51,67.14-84.22,75.45,14.75,85,37.14,17.91,47.77,17.91,47.77l23.47-12.7S346.85,16.53,236.7,8,112.79,85,112.79,85l.72,54.81Z" transform="translate(0 0.02)" fill="#fbc29a"/></g><path d="M213.22,2.65s6.23-6,13.2,0-2.56,63-2.56,63-4.9,5.87-7.77-.84S208.45,26.49,213.22,2.65Z" transform="translate(0 0.02)" fill="#4c3422"/><path d="M237.41,4.34s6.13-5,11,1.81S236.68,68,236.68,68s-5,5.13-6.36-1.89S229.79,27.23,237.41,4.34Z" transform="translate(0 0.02)" fill="#4c3422"/><path d="M261.79,9.89S268.6,6,272.4,13.5s-21.11,58.4-21.11,58.4-5.71,4.17-6-2.91S250.75,30.94,261.79,9.89Z" transform="translate(0 0.02)" fill="#4c3422"/><path d="M286,22.2a7.67,7.67,0,0,1,9.51,5.21c.05.17.09.34.13.51,2.32,7.88-31.17,50.17-31.17,50.17s-6.31,2.65-5.29-4S271.48,39.53,286,22.2Z" transform="translate(0 0.02)" fill="#4c3422"/><path d="M307.44,38.49s7.65-.56,8.19,7.66-41.56,42.71-41.56,42.71-6.76,1.28-4.28-5.09S289.37,52.45,307.44,38.49Z" transform="translate(0 0.02)" fill="#4c3422"/><path d="M319.81,62.27A8.43,8.43,0,0,1,326,71.59c-.7,7.69-43.44,27.5-43.44,27.5s-6.25-.72-3.11-5.86S301.58,70,319.81,62.27Z" transform="translate(0 0.02)" fill="#4c3422"/><path d="M325.73,85.49a6.19,6.19,0,0,1,4,7.81l-.06.19c-1.77,6.18-41.32,19.23-41.32,19.23s-5.23-1-1.77-5S309,90.47,325.73,85.49Z" transform="translate(0 0.02)" fill="#4c3422"/><path d="M326.41,106.66a7,7,0,0,1,3.24,8.29c-1.67,5.76-36.39,13.11-36.39,13.11s-4.53-1.7-1.43-5.07S311.71,109.24,326.41,106.66Z" transform="translate(0 0.02)" fill="#4c3422"/><path d="M326.53,122.53a5.59,5.59,0,0,1,2.68,6.85c-1.51,4.82-31.43,11.38-31.43,11.38s-3.88-1.36-1.17-4.2S313.87,124.86,326.53,122.53Z" transform="translate(0 0.02)" fill="#4c3422"/><path d="M324.62,135.26a4.85,4.85,0,0,1,3.4,5.2c-.33,4.18-23.11,14.26-23.11,14.26s-3.35-.51-1.7-3.26S314.9,139.16,324.62,135.26Z" transform="translate(0 0.02)" fill="#4c3422"/><path d="M201.37,4.34s-6.12-5-11,1.81S202.1,68,202.1,68s5,5.13,6.37-1.89S209,27.23,201.37,4.34Z" transform="translate(0 0.02)" fill="#4c3422"/><path d="M179.4,9.89S172.59,6,168.79,13.5,189.9,71.9,189.9,71.9s5.71,4.17,6-2.91S190.44,30.94,179.4,9.89Z" transform="translate(0 0.02)" fill="#4c3422"/><path d="M155.14,22.2a7.66,7.66,0,0,0-9.5,5.21c0,.17-.09.34-.13.51-2.32,7.88,31.17,50.17,31.17,50.17S183,80.74,182,74,169.71,39.53,155.14,22.2Z" transform="translate(0 0.02)" fill="#4c3422"/><path d="M133.74,38.49a7.63,7.63,0,0,0-8.16,7.06c0,.2,0,.4,0,.6-.54,8.23,41.56,42.71,41.56,42.71s6.76,1.28,4.28-5.09S151.82,52.45,133.74,38.49Z" transform="translate(0 0.02)" fill="#4c3422"/><path d="M121.38,62.27a8.45,8.45,0,0,0-6.24,9.32c.71,7.69,43.45,27.5,43.45,27.5s6.25-.72,3.11-5.86S139.61,70,121.38,62.27Z" transform="translate(0 0.02)" fill="#4c3422"/><path d="M115.46,85.49a6.19,6.19,0,0,0-4,7.79,1.72,1.72,0,0,0,.07.21c1.76,6.18,41.31,19.23,41.31,19.23s5.24-1,1.77-5S132.22,90.47,115.46,85.49Z" transform="translate(0 0.02)" fill="#4c3422"/><path d="M114.78,106.66a7,7,0,0,0-3.25,8.29c1.67,5.76,36.4,13.11,36.4,13.11s4.53-1.7,1.43-5.07S129.48,109.24,114.78,106.66Z" transform="translate(0 0.02)" fill="#4c3422"/><path d="M114.66,122.53a5.59,5.59,0,0,0-2.68,6.85c1.51,4.82,31.43,11.38,31.43,11.38s3.87-1.36,1.17-4.2S127.32,124.86,114.66,122.53Z" transform="translate(0 0.02)" fill="#4c3422"/><path d="M114.7,135.18a5.44,5.44,0,0,0-3.41,5.19c0,4,20,12.16,20,12.16s3.06-.7,1.75-3.23S123.23,138.28,114.7,135.18Z" transform="translate(0 0.02)" fill="#4c3422"/><path d="M136.81,331.81s-6.44,52.77,83.27,53.69,90.29-51.25,90.29-51.25l-24.53-15.91s10.27,52.26-65.76,50c-74.82-2.21-63-50-63-50Z" transform="translate(0 0.02)" fill="#f9a793"/><circle cx="259.11" cy="419.15" r="6.99" fill="#f9a793"/><circle cx="324.2" cy="366.86" r="6.99" fill="#f9a793"/><path d="M334.63,394.06a24,24,0,0,0,13.83,46L345,428.44s-10.49,5.8-14.92-7.94S337.9,405,337.9,405Z" transform="translate(0 0.02)" fill="#f9a793"/><path d="M104.15,408.78a24,24,0,1,0,11-46.72c-.44-.11-.89-.2-1.34-.28l-2.43,11.84s12-.11,9.36,14.08-14.29,10-14.29,10Z" transform="translate(0 0.02)" fill="#f9a793"/><circle cx="125.55" cy="431.9" r="6.99" transform="translate(-314.16 526.53) rotate(-85.93)" fill="#f9a793"/><path d="M251.3,245.68h-63s-5.11,22.09,31.5,22.47C256.42,267.77,251.3,245.68,251.3,245.68Z" transform="translate(0 0.02)" fill="#f9b392"/><path d="M251.36,241.55s-10.06,1.92-31.56,1.71c-21.5.21-31.56-1.71-31.56-1.71-3,18.24,31.56,18.34,31.56,18.34S254.34,259.79,251.36,241.55Z" transform="translate(0 0.02)" fill="#fff5ee"/><path d="M188.24,241.55s12.23-7.21,30.31-2.74c0,0,23.16-5.55,32.81,2.74C251.36,241.55,224.54,254.19,188.24,241.55Z" transform="translate(0 0.02)" fill="#f9b392"/><path d="M337.27,170c0-1-.11-2.08-.21-3.11a11.45,11.45,0,0,0-.15-1.46l-.09-.8a1,1,0,0,0-.05-.38c.05.38,0-.16,0-.24-.18-1.25-.39-2.48-.66-3.71a33.49,33.49,0,0,0-1-3.69l-.3-.86-.16-.39-.09-.22c.08.18,0,.09,0,0-.24-.54-.5-1.07-.79-1.58-.13-.22-.26-.43-.4-.64l-.24-.35c-.21-.31.07.07-.12-.15a7.66,7.66,0,0,0-1.06-1.07c.32.26-.2-.12-.31-.19a2,2,0,0,1-.32-.18c-.31-.17.13,0-.07,0a2.53,2.53,0,0,1-.65-.2c-.22-.07-.29,0,0,0h-.86c-.15,0-.44.06-.12,0a6.14,6.14,0,0,0-.94.23,1.43,1.43,0,0,0-.44.15h0l-.29.14c-.34.17-.68.36-1,.56a22.68,22.68,0,0,0-4.64,4.27c-1.21,1.4-3.24-.64-2-2,2.21-2.54,5.09-5.51,8.59-6.1a6.63,6.63,0,0,1,6.48,2.79,19.91,19.91,0,0,1,3.19,7.25,54.85,54.85,0,0,1,1.37,7.85c.15,1.4.28,2.8.32,4.21.05,1.85-2.82,1.85-2.88,0Z" transform="translate(0 0.02)" fill="#fbc29a"/><path d="M321.53,165.22c3.25-.37,7.27.78,8.44,4.15s-.57,7.75-2.43,10.47a63.77,63.77,0,0,1-4.94,5.71,18.51,18.51,0,0,1-2.18,2.5c-.39.3.2-.77.25-.45a1.47,1.47,0,0,1-.13.42c-.32,1.33-.73,2.64-1,4a47,47,0,0,0-1,5.77,12.76,12.76,0,0,0,.19,5c.12.38,0,0,.12.29,0,.11.34.52.12.23.07.1.46.39.14.17.28.19.12.1.18.11.37.08.13,0,.25,0h.28a5.31,5.31,0,0,0,1.28-.41c3.74-1.76,6.8-5.33,9.54-8.3,1.26-1.36,3.29.67,2,2a43.44,43.44,0,0,1-9.07,8.17c-1.62,1-3.83,2-5.69,1-3.34-1.79-2.43-7.32-2-10.33a41.44,41.44,0,0,1,2-8.87,4.6,4.6,0,0,1,1-1.4l3-3.43,2.85-3.27a12.14,12.14,0,0,0,2-3.84c.52-1.44,1.09-3.27.46-4.77a3.13,3.13,0,0,0-1.77-1.6,7.6,7.6,0,0,0-3.89-.44c-1.84.21-1.82-2.67,0-2.87Z" transform="translate(0 0.02)" fill="#fbc29a"/><path d="M102.71,170c0-1,.12-2.08.21-3.11l.15-1.46a5.47,5.47,0,0,1,.1-.8,1.11,1.11,0,0,0,0-.38V164c.18-1.25.4-2.48.66-3.71a35.87,35.87,0,0,1,1-3.69c.1-.29.2-.58.31-.86l.15-.39.09-.22c-.07.18,0,.09,0,0a15.52,15.52,0,0,1,.79-1.58c.12-.22.26-.43.39-.64l.24-.35c.21-.31-.07.07.12-.15a7.73,7.73,0,0,1,1.07-1.07c-.32.26.19-.12.31-.19l.32-.18c.3-.17-.13,0,.07,0a2.36,2.36,0,0,0,.64-.2c.21-.07.3,0,0,0h.86c.14,0,.44.06.11,0a6.26,6.26,0,0,1,1,.23,1.53,1.53,0,0,1,.44.15c.15.05.25.12,0,0l.29.14c.34.17.68.36,1,.56a22.4,22.4,0,0,1,4.64,4.27c1.22,1.4,3.25-.64,2-2-2.21-2.54-5.09-5.51-8.58-6.1a6.63,6.63,0,0,0-6.48,2.79,19.93,19.93,0,0,0-3.2,7.25,53.47,53.47,0,0,0-1.36,7.85c-.16,1.4-.28,2.8-.32,4.21-.06,1.85,2.82,1.85,2.87,0Z" transform="translate(0 0.02)" fill="#fbc29a"/><path d="M117.76,165.22c-3.25-.37-7.27.78-8.44,4.15s.57,7.75,2.43,10.47a63.77,63.77,0,0,0,4.94,5.71,19.85,19.85,0,0,0,2.17,2.5c.39.3-.19-.77-.24-.45a1.47,1.47,0,0,0,.13.42c.32,1.33.73,2.64,1,4a47,47,0,0,1,1,5.77,12.76,12.76,0,0,1-.19,5c-.12.38,0,0-.12.29,0,.11-.34.52-.12.23-.08.1-.46.39-.14.17-.28.19-.12.1-.18.11-.37.08-.13,0-.25,0h-.28a5.31,5.31,0,0,1-1.28-.41c-3.74-1.76-6.8-5.33-9.54-8.3-1.26-1.36-3.29.67-2,2a43.44,43.44,0,0,0,9.07,8.17c1.62,1,3.83,2,5.69,1,3.34-1.79,2.43-7.32,2-10.33a41.44,41.44,0,0,0-2-8.87,4.6,4.6,0,0,0-1-1.4l-3-3.43-2.85-3.27a12.14,12.14,0,0,1-2-3.84c-.52-1.44-1.09-3.27-.46-4.77a3.13,3.13,0,0,1,1.77-1.6,7.6,7.6,0,0,1,3.89-.44c1.84.21,1.82-2.67,0-2.87Z" transform="translate(0 0.02)" fill="#fbc29a"/><path d="M198.48,275c6.74,1.9,14.05,3.8,21.1,3.71s14.56-1.82,21.54-3.48c1.43-.35.82-2.55-.61-2.21-6.79,1.62-13.94,3.32-20.93,3.41s-13.94-1.79-20.49-3.64a1.15,1.15,0,0,0-.61,2.21Z" transform="translate(0 0.02)" fill="#fbc29a"/><path d="M223.57,162.91a118.22,118.22,0,0,0-1.22,17.93c.05,2.78.16,6,1.44,8.36a34.35,34.35,0,0,0,2,3.07c3.07,4.54,10.14,14.3,6,20.58-1.58,2.37-4.17,3.42-6.45,4.11A42.86,42.86,0,0,1,212,218.31c-1.36,0-1.36,2.69,0,2.71,7.14.12,25.56,0,22.78-15.28-.79-4.37-3-8.24-5.09-11.7-1.6-2.59-4.19-5.24-4.83-8.28-.9-4.27-.45-9.21-.14-13.54.21-2.87.48-5.75.86-8.59.23-1.71-1.8-2.44-2-.72Z" transform="translate(0 0.02)" fill="#fbc29a"/><ellipse cx="178.69" cy="171.4" rx="5.33" ry="10.11" fill="#4c3422"/><ellipse cx="264.2" cy="171.4" rx="5.33" ry="10.11" fill="#4c3422"/><path d="M149.36,156l-2.31-2s6-11.83,29.29-14,26.92,7,26.92,7-1.16,7.3-6,5.18c0,0-8.61-8.54-20.16-6.87S163.36,148.09,149.36,156Z" transform="translate(0 0.02)" fill="#4c3422"/><path d="M290.39,156l2.31-2s-6-11.83-29.29-14-26.92,7-26.92,7,1.16,7.3,6,5.18c0,0,8.61-8.54,20.17-6.87S276.39,148.09,290.39,156Z" transform="translate(0 0.02)" fill="#4c3422"/><path d="M102,452a24,24,0,0,0,47.36,7.8l-11.93-2s.59,12-13.7,9.91-10.51-13.89-10.51-13.89Z" transform="translate(0 0.02)" fill="#f9a793"/><circle cx="188.24" cy="409.19" r="6.99" fill="#f9a793"/><polygon points="69.08 378.99 66.17 500.02 82.07 500.02 83.18 367.21 69.08 378.99" fill="#f9a793"/><polygon points="374.7 378.99 377.61 500.02 361.7 500.02 360.63 366.86 374.7 378.99" fill="#f9a793"/><circle cx="214.43" cy="209.71" r="3.24" fill="#db8f2c"/></svg>