<svg id="f31b83bd-ff33-4784-a931-2bcb29b19f8e" data-name="b3e27c58-cc63-41a8-8cc8-08ad8cad0e8a" xmlns="http://www.w3.org/2000/svg" viewBox="0 0 404.18 500"><path d="M346,416.75l-73-44.93c-26.11-20.81-14-56.05-14-56.05l-55,21.59-55-21.59s12.11,35.24-14,56.05l-73,44.93S22.72,439,6.5,500H401.57C385.35,439,346,416.75,346,416.75Z" transform="translate(0 0)" fill="#ffdebc"/><path d="M337.58,405.46l-56.74-35.83s-8.17,45-76.7,44.24c-68.52.75-76.69-44.24-76.69-44.24L70.71,405.46C29,420.7,0,500,0,500H404.18S379.28,420.7,337.58,405.46Z" transform="translate(0 0)" fill="#ccecff"/><path d="M149.24,321.56c10.73,35.22-19.61,53.58-19.61,53.58l131.11-18.82s-9.87-24.2-.45-33.35l-111-1.41" transform="translate(0 0)" fill="#fbc29a"/><path d="M115.21,379.51h0C115.21,379.44,115.19,379.35,115.21,379.51Z" transform="translate(0 0)" fill="#86ccef"/><path d="M294.8,379.49c0-.06,0-.13,0,0h0l0,.07c0,.33-.1.65-.17,1a31.52,31.52,0,0,1-.91,3.5,44.79,44.79,0,0,1-5.51,11.34c-8.94,13.45-23.49,21.28-38,25.61-14.79,4.43-30.28,5.66-45.57,5.5h0c-22.66.17-47.23-2.48-66.92-15.56-9.1-6-17.19-14.75-21-25.66a34.72,34.72,0,0,1-1.24-4.38c-.09-.4-.16-.81-.23-1.21a1.3,1.3,0,0,0,0-.18c-.15-1.4-2.21-1.42-2.06,0,.64,6.15,3.72,12.27,7,17.19,9.28,13.84,24.09,22,39.07,26.44,14.72,4.41,30.16,5.69,45.4,5.58h0c23.3.24,48.74-2.47,69-16.06,9.45-6.35,17.68-15.43,21.66-26.79a28.87,28.87,0,0,0,1.57-6.36C297,378.1,295,378.11,294.8,379.49Z" transform="translate(0 0)" fill="#86ccef"/><polygon points="316.94 465.63 337.02 403.59 315.85 391.74 296.87 465.63 110.77 465.63 91.78 391.74 70.61 403.59 90.69 465.63 79.48 465.63 67.17 500 337.02 500 324.7 465.63 316.94 465.63" fill="#86ccef"/><path d="M139.7,446.39s17.72-29.37,4.26-46c0,0,13.43-35.22,6.72-45.61l1.06-21.37s-33.11-14.26-46.52-65.95c0,0-7.9,6.21-24.36-3.63,0,0-8.2,23.42,11.78,48,0,0-12.62,13.78,1.56,41.62,0,0-12.08,13.82,14.18,44.13,0,0-17.41,6.59,11.63,48.1,0,0-12.87,28.21,19.69,41.67C139.7,487.35,153,461,139.7,446.39Z" transform="translate(0 0)" fill="#dd620e"/><path d="M99.75,268a21.58,21.58,0,0,0,.09,2.4A42.74,42.74,0,0,0,100.9,277a43.21,43.21,0,0,0,9.86,18.73c.92,1-1.71,2.62-2.62,1.6A44.3,44.3,0,0,1,98.08,278a34.52,34.52,0,0,1-1.16-9.56c0-1.49,2.88-2,2.83-.47Z" transform="translate(0 0)" fill="#b75513"/><path d="M97.13,268.67a23.63,23.63,0,0,0-.46,2.36,42.55,42.55,0,0,0-.47,6.62,43.28,43.28,0,0,0,5.3,20.49c.66,1.22-2.27,2.17-2.92,1A44.4,44.4,0,0,1,93.2,278a35.08,35.08,0,0,1,1.07-9.56c.4-1.44,3.25-1.24,2.86.19Z" transform="translate(0 0)" fill="#b75513"/><path d="M202.18,49.84h-1c-12,.29-125.39,5.77-117,110.2C93.1,270.25,122,306.77,122,306.77s22,37.72,79.11,40.15V347l.51,0c.18,0,.34,0,.52,0v-.05c57.1-2.43,79.11-40.15,79.11-40.15S310.23,270.25,319.13,160C327.57,55.61,214.12,50.13,202.18,49.84Z" transform="translate(0 0)" fill="#ffdebc"/><path d="M237.59,272.81c-1.45,5.21-7.8,7.49-12.43,8.81a76.53,76.53,0,0,1-16.47,2.55c-1.09.06-2.18.1-3.27.11a86.21,86.21,0,0,1-9.77-.69c-5.81-.71-12-1.88-17.17-4.86-2.36-1.36-4.53-3.23-5.27-5.92s-4.83-1.52-4.09,1.14c1.76,6.33,8.19,9.53,13.91,11.36a76.45,76.45,0,0,0,18.63,3.12c1,.06,2.07.09,3.11.12.07,0,.12,0,.19,0l.41,0,.46,0a1.55,1.55,0,0,0,.23,0,89.11,89.11,0,0,0,10.19-.8c6.55-.87,13.63-2.23,19.26-5.95a14.08,14.08,0,0,0,6.17-7.84C242.42,271.29,238.33,270.15,237.59,272.81Z" transform="translate(0 0)" fill="#f9b392"/><path d="M230.14,293.75c-1.11,4-6,5.75-9.55,6.77a57.73,57.73,0,0,1-12.66,2c-.84,0-1.68.08-2.51.09a65.22,65.22,0,0,1-7.52-.53c-4.46-.54-9.25-1.44-13.2-3.73a8.06,8.06,0,0,1-4-4.55,1.64,1.64,0,0,0-3.15.88c1.35,4.85,6.3,7.32,10.7,8.72a58.3,58.3,0,0,0,14.32,2.4c.79.05,1.59.07,2.39.09a.7.7,0,0,0,.14,0h.67c.07,0,.11,0,.17,0a68.45,68.45,0,0,0,7.84-.62c5-.67,10.48-1.71,14.8-4.57a10.79,10.79,0,0,0,4.74-6A1.63,1.63,0,0,0,230.14,293.75Z" transform="translate(0 0)" fill="#fbc29a"/><ellipse cx="154.7" cy="193" rx="7.39" ry="14.02" fill="#4c3422"/><ellipse cx="248.62" cy="193" rx="7.39" ry="14.02" fill="#4c3422"/><path d="M308,199.52l1.57-69.29C182.81,116.83,162.75,74.7,162.75,74.7c-4.34,19.15-40.21,49.21-40.21,49.21-25,17.69-21.16,81.55-21.16,81.55l-23.48-4S55.77,144.83,79.19,81.23c20.44-55.48,68.12-54.29,68.12-54.29S174.43-1.78,220.71.09s141.69,24.42,108,201.35Z" transform="translate(0 0)" fill="#dd620e"/><path d="M161.25,74.7a16.1,16.1,0,0,0-.36-3.25,6.12,6.12,0,0,0-.78-2.18c-.4-.53-1-.7-1.44-1.16-2-2.09-1.09-6.4-.62-8.94.18-1,.42-2,.64-2.92-.17.73,0,.07,0-.23,0-.69.05-1.38,0-2.07a11.47,11.47,0,0,0-.78-4.76c-.67-1.36-2.14-1.73-2.67-3.32-1-2.9.18-6.44,1.27-9.15.74-1.86,3.32-.25,2.58,1.6.28-.69-.13.37-.2.6a21.91,21.91,0,0,0-.62,2.14c-.27,1.15-.81,3.2,0,4.21.38.46,1,.7,1.44,1.18A6.73,6.73,0,0,1,161,48.61a16.89,16.89,0,0,1,.77,5,20.71,20.71,0,0,1-.54,5.16,27.65,27.65,0,0,0-.66,4.62,8.28,8.28,0,0,0,.07,1.86c.14.81.1.5.7.89,2.48,1.64,2.92,5.75,3,8.56a1.5,1.5,0,1,1-3,0Z" transform="translate(0 0)" fill="#b75513"/><path d="M159.75,68.81a30.11,30.11,0,0,0-12.33-.08c-10.13,1.83-18.74,8-24.91,16.61-1.16,1.6-3.76,0-2.59-1.6,6.55-9.1,15.55-15.93,26.32-18a33.48,33.48,0,0,1,14.3,0c1.87.49,1.08,3.54-.79,3.06Z" transform="translate(0 0)" fill="#b75513"/><path d="M198.14,50.88a30.11,30.11,0,0,0-12.33-.07c-10.13,1.82-18.74,8-24.91,16.61-1.15,1.6-3.76,0-2.59-1.6,6.55-9.11,15.55-15.94,26.32-18a33.48,33.48,0,0,1,14.3,0c1.87.48,1.08,3.53-.79,3.05Z" transform="translate(0 0)" fill="#b75513"/><path d="M159.39,53.87a30.16,30.16,0,0,0-11.87-3.42c-10.25-1-20.07,2.65-28.14,9.26-1.51,1.23-3.64-1-2.12-2.23,8.56-7,18.87-11.17,29.79-10.24a34,34,0,0,1,13.85,3.9c1.69,1,.18,3.71-1.51,2.73Z" transform="translate(0 0)" fill="#b75513"/><path d="M188.85,37.72a17.49,17.49,0,0,0-8.65-.79c-7.61,1-13.88,6.22-18.35,12.56-1.14,1.62-3.74,0-2.58-1.6,4.07-5.78,9.28-10.71,15.86-13a23.67,23.67,0,0,1,12.26-.86,12.83,12.83,0,0,1,2.26.62c1.79.71,1,3.77-.8,3Z" transform="translate(0 0)" fill="#b75513"/><path d="M309.55,130.09c-.12-6.68-2.09-13.6-4.4-19.78A76,76,0,0,0,275.23,73.5C263.79,66.08,250.91,61.67,237.78,59c-1.89-.38-1.09-3.43.8-3,21.21,4.25,42.17,13.58,56.59,31.11a78.09,78.09,0,0,1,16.44,35.22,48.35,48.35,0,0,1,.94,7.77,1.5,1.5,0,1,1-3,0Z" transform="translate(0 0)" fill="#b75513"/><path d="M308.05,92.52c-.31-5.85-2.33-12-4.7-17.48a70.18,70.18,0,0,0-29-32.25c-10.66-6.31-22.67-10.11-34.95-12.32-1.77-.32-1-2.82.72-2.5,20.11,3.62,39.68,11.88,53.23,26.78a69.14,69.14,0,0,1,16.34,30.82,41.42,41.42,0,0,1,1.12,7c.09,1.67-2.7,1.64-2.79,0Z" transform="translate(0 0)" fill="#b75513"/><path d="M315.26,194.23A91.53,91.53,0,0,0,319,178.71a140.69,140.69,0,0,0,1.14-38.6c-.15-1.35,2.85-1.35,3,0a140.9,140.9,0,0,1-1.22,39.11,93.87,93.87,0,0,1-3.76,15.57c-.47,1.32-3.36.76-2.89-.56Z" transform="translate(0 0)" fill="#b75513"/><path d="M84.42,191.61a200.55,200.55,0,0,1,0-26.63,285.63,285.63,0,0,1,10-61.62,1.5,1.5,0,1,1,2.88.85,282.12,282.12,0,0,0-9.94,61.6,198.32,198.32,0,0,0,0,25.8c.17,2-2.83,2-3,0Z" transform="translate(0 0)" fill="#b75513"/><path d="M84.47,191.19c4.25-20.2,6.94-40.86,10-61.29.29-2,3.18-1.15,2.88.84-3,20.43-5.73,41.09-10,61.29-.42,2-3.31,1.15-2.89-.84Z" transform="translate(0 0)" fill="#b75513"/><path d="M199.29,71.21c21,13.47,43.05,26.15,66,35.53,7.15,2.93,14.63,5.74,22.29,6.69,1.89.24,1.92,3.41,0,3.17-14.69-1.83-28.93-8.94-42.17-15.56C231.93,94.31,218.78,86.83,205.87,79c-2.71-1.65-5.42-3.31-8.09-5-1.65-1.06-.14-3.79,1.51-2.73Z" transform="translate(0 0)" fill="#b75513"/><path d="M90.08,187.29s-3.23-23.56-23.2-7.46-1.29,67.64,11,81.16,29.31,6.44,29.31,6.44Z" transform="translate(0 0)" fill="#ffdebc"/><path d="M65.41,211.55c0-1.31.14-2.62.26-3.92.06-.61.12-1.23.19-1.84l.12-1,.06-.49c-.06.49,0-.2,0-.3.22-1.56.49-3.12.83-4.67a44.18,44.18,0,0,1,1.26-4.64c.12-.36.25-.72.38-1.08.07-.17.13-.33.19-.5l.12-.28c-.1.24-.05.12,0,0a20.47,20.47,0,0,1,1-2c.16-.27.33-.54.5-.81l.3-.43c.27-.39-.09.08.15-.2A10.6,10.6,0,0,1,72.17,188c-.4.33.25-.15.4-.24l.4-.22c.38-.23-.17,0,.08-.05s.54-.16.82-.24.36-.06,0,0a4.73,4.73,0,0,1,.53,0,5.09,5.09,0,0,1,.55,0c.18,0,.55.07.15,0a8.25,8.25,0,0,1,1.19.29l.55.2c.07,0,.31.14,0,0l.36.17c.44.22.86.45,1.28.71A27.92,27.92,0,0,1,84.34,194c1.53,1.75,4.08-.81,2.56-2.56-2.79-3.2-6.42-6.94-10.81-7.68a8.39,8.39,0,0,0-8.16,3.5,25.18,25.18,0,0,0-4,9.14,67.26,67.26,0,0,0-1.72,9.87c-.19,1.76-.35,3.54-.4,5.31-.07,2.33,3.55,2.32,3.62,0Z" transform="translate(0 0)" fill="#fbc29a"/><path d="M90.94,203.84c-4.09-.46-9.15,1-10.62,5.23s.72,9.75,3.05,13.18c1.75,2.57,4.18,4.84,6.22,7.18a24.27,24.27,0,0,0,2.74,3.15c.49.38-.25-1-.31-.56,0,.14.13.39.16.53.41,1.67.92,3.31,1.32,5a59.37,59.37,0,0,1,1.29,7.27,15.92,15.92,0,0,1-.24,6.24c-.15.47,0-.06-.15.36-.06.14-.42.66-.15.29-.09.13-.58.5-.18.21-.35.25-.14.13-.23.14-.46.1-.16.06-.3.07-.3,0-.48,0-.36,0a5.74,5.74,0,0,1-1.61-.52c-4.71-2.21-8.56-6.7-12-10.45-1.58-1.71-4.14.85-2.56,2.56,3.43,3.72,7.07,7.61,11.42,10.28,2,1.26,4.83,2.48,7.16,1.23,4.21-2.24,3.07-9.21,2.5-13a51.59,51.59,0,0,0-2.57-11.17,6.09,6.09,0,0,0-1.26-1.77L90.5,225l-3.59-4.12A15.1,15.1,0,0,1,84.39,216c-.65-1.8-1.37-4.11-.58-6a3.94,3.94,0,0,1,2.24-2,9.46,9.46,0,0,1,4.89-.55c2.31.26,2.29-3.36,0-3.62Z" transform="translate(0 0)" fill="#fbc29a"/><path d="M316.58,187.29s3.23-23.56,23.2-7.46,1.29,67.64-10.95,81.16-29.3,6.44-29.3,6.44Z" transform="translate(0 0)" fill="#ffdebc"/><path d="M341.54,212.5c0-1.31-.14-2.61-.26-3.91-.06-.62-.12-1.23-.19-1.84,0-.34-.08-.67-.13-1l-.06-.48c.07.48,0-.2,0-.3-.23-1.57-.5-3.13-.83-4.67a43.53,43.53,0,0,0-1.26-4.64c-.12-.37-.25-.73-.39-1.09l-.19-.49c0-.1-.07-.19-.11-.28.09.23.05.11,0,0a20.39,20.39,0,0,0-1-2,8.39,8.39,0,0,0-.5-.81c-.09-.15-.2-.29-.3-.44-.26-.39.09.09-.15-.2a10.44,10.44,0,0,0-1.33-1.33c.39.32-.25-.16-.4-.25l-.4-.22c-.39-.22.16,0-.09,0l-.81-.25c-.25-.07-.37-.05,0,0l-.53,0H332c-.19,0-.56.08-.15,0a8.25,8.25,0,0,0-1.19.29l-.55.19h0l-.36.17c-.43.22-.86.46-1.27.72a27.62,27.62,0,0,0-5.84,5.37c-1.54,1.76-4.09-.81-2.56-2.56,2.79-3.2,6.41-6.93,10.81-7.67a8.34,8.34,0,0,1,8.15,3.5,25.15,25.15,0,0,1,4,9.13,69,69,0,0,1,1.71,9.88c.2,1.76.36,3.53.41,5.3.07,2.33-3.55,2.33-3.62,0Z" transform="translate(0 0)" fill="#fbc29a"/><path d="M315.72,203.84c4.09-.46,9.15,1,10.62,5.23s-.72,9.75-3,13.18c-1.75,2.57-4.18,4.84-6.22,7.18a23.53,23.53,0,0,1-2.74,3.15c-.49.38.25-1,.31-.56,0,.14-.13.39-.16.53-.4,1.67-.92,3.31-1.31,5a57.58,57.58,0,0,0-1.3,7.27,15.92,15.92,0,0,0,.24,6.24c.15.47,0-.06.15.36.06.14.42.66.15.29.1.13.58.5.18.21.35.25.14.13.23.14.46.1.16.06.3.07.3,0,.48,0,.36,0a5.54,5.54,0,0,0,1.61-.52c4.71-2.21,8.56-6.7,12-10.45,1.58-1.71,4.14.85,2.56,2.56-3.43,3.72-7.07,7.61-11.42,10.28-2,1.26-4.83,2.48-7.16,1.23-4.21-2.24-3.06-9.21-2.5-13a51.59,51.59,0,0,1,2.57-11.17,6.09,6.09,0,0,1,1.26-1.77l3.76-4.31,3.58-4.12a15.1,15.1,0,0,0,2.52-4.84c.65-1.8,1.37-4.11.58-6a3.94,3.94,0,0,0-2.24-2,9.46,9.46,0,0,0-4.89-.55c-2.31.26-2.29-3.36,0-3.62Z" transform="translate(0 0)" fill="#fbc29a"/><path d="M178.47,156s-17.57-13.3-40.07-6.13-26.68,20.72-26.68,20.72-1.35,7.94,6.66,2.57,25.77-17.26,47.12-9.34c0,0,6.5,3.47,11.56,1.57C187.67,161.39,178.47,156,178.47,156Z" transform="translate(0 0)" fill="#c96912"/><path d="M227.45,156s17.57-13.3,40.07-6.13,26.68,20.72,26.68,20.72,1.35,7.94-6.66,2.57-25.77-17.26-47.12-9.34c0,0-6.5,3.47-11.57,1.57C218.24,161.39,227.45,156,227.45,156Z" transform="translate(0 0)" fill="#c96912"/><path d="M204.59,192.06c.11-.82-.06.5-.11.91-.14,1.24-.26,2.48-.37,3.72a104.29,104.29,0,0,0-.38,10.9c.08,3.61-.24,3.45.92,6.91,1,2.86,1.84,3.36,4.81,3.54,12.21.75,23.78,13.59,16.65,25.67-5.08,8.59-16.41,10.47-25.51,10.57-2.92,0-2.92-4.5,0-4.54,7.47-.08,17.84-1.28,21.81-8.72,2.52-4.7,1-10.32-2.68-14a15.46,15.46,0,0,0-7.68-4.13c-2.8-.63-5.62-.05-8.09-1.82-5.14-3.7-4.61-7.54-4.76-13.23a104.46,104.46,0,0,1,1-17c.4-2.88,4.78-1.65,4.38,1.21Z" transform="translate(0 0)" fill="#fbc29a"/><path d="M111.29,350.16c.43.57,1.18,1.72,1.79,2.71a78.51,78.51,0,0,1,4.36,8.14,89.18,89.18,0,0,1,7.84,29.55c.18,2,3.19,1.29,3-.66a91.62,91.62,0,0,0-8.13-30.32,63.22,63.22,0,0,0-6.61-11.51c-1.19-1.58-3.45.52-2.26,2.09Z" transform="translate(0 0)" fill="#b75513"/><path d="M130.59,449a22.09,22.09,0,0,0,3.52-7.7c2-7,1.31-14.48-.54-21.45-.41-1.54-2.74-.64-2.33.9,1.74,6.55,2.26,13.55.4,20.14a20,20,0,0,1-3,6.52c-1,1.25.92,2.84,1.92,1.59Z" transform="translate(0 0)" fill="#b75513"/><path d="M131.16,448a21.85,21.85,0,0,0,.19-8.45c-1-7.25-4.47-13.81-8.94-19.51-1-1.26-2.75.51-1.77,1.76,4.16,5.3,7.43,11.57,8.29,18.32a19.5,19.5,0,0,1-.17,7.21,1.25,1.25,0,0,0,2.4.67Z" transform="translate(0 0)" fill="#b75513"/><path d="M132.79,349.51a22.7,22.7,0,0,0-1.28,2,41.56,41.56,0,0,0-2.84,6,43.19,43.19,0,0,0-2.48,21c.18,1.36-2.9,1.19-3.07-.16a44.41,44.41,0,0,1,2.61-21.58,35.17,35.17,0,0,1,4.46-8.53c.89-1.2,3.48,0,2.6,1.21Z" transform="translate(0 0)" fill="#b75513"/><path d="M146.25,448l-.51-.21.87-.42a7.06,7.06,0,0,0-6.28-12.64l-2.07,1V434.3a7.06,7.06,0,1,0-14.11,0v1.75l-3.07-1.23a7.05,7.05,0,0,0-5.28,13.08l.16.07-.21.08a7.05,7.05,0,1,0,5.41,13l2.69-1.11a7,7,0,0,0,14-.16l3.11,1.25A7.05,7.05,0,1,0,146.25,448Z" transform="translate(0 0)" fill="#fff"/><path d="M132.05,444.27v-9.46a1,1,0,0,0-2.05,0v9.46a1,1,0,0,0,2.05,0Z" transform="translate(0 0)" fill="#e0e0e0"/><path d="M132.05,458.87v-9.46a1,1,0,0,0-2.05,0v9.46a1,1,0,0,0,2.05,0Z" transform="translate(0 0)" fill="#e0e0e0"/><path d="M129.28,444.74,122,440.83l-1-.57a1,1,0,0,0-1,1.78L127.2,446l1,.56a1,1,0,0,0,1-1.77Z" transform="translate(0 0)" fill="#e0e0e0"/><path d="M142.14,451.64l-7.28-3.91-1.05-.56a1.06,1.06,0,0,0-1.41.37,1,1,0,0,0,.37,1.4l7.28,3.91,1,.57a1,1,0,0,0,1-1.78Z" transform="translate(0 0)" fill="#e0e0e0"/><path d="M133.81,446.51l7.28-3.91,1-.56a1,1,0,0,0-1-1.78l-7.28,3.91-1,.57a1,1,0,0,0-.37,1.4,1,1,0,0,0,1.41.37Z" transform="translate(0 0)" fill="#e0e0e0"/><path d="M121,453.42l7.28-3.92,1.05-.56a1,1,0,0,0-1-1.77L121,451.08l-1.06.56a1,1,0,0,0,1,1.78Z" transform="translate(0 0)" fill="#e0e0e0"/><circle cx="131.03" cy="446.89" r="6.68" fill="#e2a037"/><path d="M326.07,125.17l-.51-.21.86-.43a7.05,7.05,0,1,0-6.28-12.63l-2.07,1v-1.45a7.06,7.06,0,0,0-14.11,0v1.76L300.89,112a7.06,7.06,0,0,0-5.27,13.09l.16.06-.21.09a7.05,7.05,0,1,0,5.41,13l2.68-1.12a7,7,0,0,0,14-.15l3.1,1.25a7.05,7.05,0,0,0,5.28-13.08Z" transform="translate(0 0)" fill="#fff"/><path d="M311.87,121.46V112a1,1,0,0,0-2.05,0v9.46a1,1,0,0,0,2.05,0Z" transform="translate(0 0)" fill="#e0e0e0"/><path d="M311.87,136.05v-9.46a1,1,0,0,0-2.05,0v9.46a1,1,0,0,0,2.05,0Z" transform="translate(0 0)" fill="#e0e0e0"/><path d="M309.1,121.93,301.82,118l-1.05-.56a1.06,1.06,0,0,0-1.41.37,1,1,0,0,0,.37,1.4l7.28,3.91,1.05.57a1.06,1.06,0,0,0,1.41-.37,1,1,0,0,0-.37-1.4Z" transform="translate(0 0)" fill="#e0e0e0"/><path d="M322,128.83l-7.29-3.91-1.05-.57a1,1,0,0,0-1,1.78l7.28,3.91,1.05.56a1,1,0,0,0,1.4-.37,1,1,0,0,0-.36-1.4Z" transform="translate(0 0)" fill="#e0e0e0"/><path d="M313.62,123.7l7.28-3.91,1.06-.57a1,1,0,0,0-1-1.77l-7.28,3.91-1.05.57a1,1,0,0,0-.37,1.4,1,1,0,0,0,1.4.37Z" transform="translate(0 0)" fill="#e0e0e0"/><path d="M300.77,130.6l7.28-3.91,1.05-.56a1,1,0,0,0-1-1.78l-7.28,3.92-1,.56a1,1,0,0,0-.37,1.4,1,1,0,0,0,1.41.37Z" transform="translate(0 0)" fill="#e0e0e0"/><circle cx="310.84" cy="124.07" r="6.68" fill="#e2a037"/><circle cx="308" cy="477.32" r="6.68" fill="#548da3"/><circle cx="98.66" cy="477.32" r="6.68" fill="#548da3"/><circle cx="172.2" cy="218.15" r="3.85" fill="#fbc29a"/><circle cx="144.19" cy="232.51" r="3.85" fill="#fbc29a"/><circle cx="168.35" cy="241.35" r="3.85" fill="#fbc29a"/><circle cx="228.18" cy="214.3" r="3.85" fill="#fbc29a"/><circle cx="244.63" cy="228.66" r="3.85" fill="#fbc29a"/><circle cx="272.29" cy="229.5" r="3.85" fill="#fbc29a"/><circle cx="256.19" cy="245.2" r="3.85" fill="#fbc29a"/><circle cx="296.92" cy="222" r="3.85" fill="#fbc29a"/><circle cx="118.22" cy="221.61" r="3.85" fill="#fbc29a"/><circle cx="125.92" cy="245.2" r="3.85" fill="#fbc29a"/><circle cx="285.45" cy="245.2" r="3.85" fill="#fbc29a"/></svg>